<svg xmlns="http://www.w3.org/2000/svg" xmlns:xlink="http://www.w3.org/1999/xlink" viewBox="0 0 67.5 65.5" fill="#fff" fill-rule="evenodd" stroke="#000" stroke-linecap="round" stroke-linejoin="round"><use xlink:href="#C" x="1.25" y="1.25"/><defs><linearGradient id="A" x1="50.78%" y1="103.45%" x2="47.02%" y2="-148.31%"><stop offset="0%" stop-color="#589632"/><stop offset="100%" stop-color="#93b023"/></linearGradient><linearGradient id="B" x1="50.79%" y1="104.81%" x2="49.33%" y2="2.89%"><stop offset="0%" stop-color="#589632"/><stop offset="100%" stop-color="#93b023"/></linearGradient></defs><symbol id="C" overflow="visible"><g stroke="none" fill-rule="nonzero"><path d="M26.335 35.315l8.008 7.91V33.75h9.15l-7.605-7.507h-9.55z" fill="#ee7913"/><path d="M53.628 62.281h9.745v-8.793l-16.08-15.733h-8.947v9.214z" fill="url(#A)"/><path d="M34.343 43.223l4.005 3.75V37.76h8.95l-3.8-4.005h-9.15z" fill="#f0e64a"/><path d="M34.5 49.733c-.583.12-.885.075-2.345.075-10.445 0-19.325-8.587-19.325-19.75s8.785-19.535 19.325-19.535 18.938 8.4 18.938 19.535a21.23 21.23 0 0 1-.642 5.205l9.667 9.665c2.492-4.367 3.887-9.445 3.887-14.945C64 12.85 50.305 0 31.958 0 13.695-.002 0 12.765 0 30.015c0 17.33 13.695 30.35 31.958 30.35 4.713 0 8.043-.735 11.533-1.883z" fill="url(#B)"/><path d="M63.375 53.49v8.793L26.57 26.24h9.318z" opacity=".15"/></g></symbol></svg>